PathFileType	4	(X/Y/Z)	C:/Users/beibeiliu/ov580/test_trc/User2\sequence.37_training_dense_right.trc
DataRate	CameraRate	NumFrames	NumMarkers	Units	OrigDataRate	OrigDataStartFrame	OrigNumFrames
120	120	20	19	mm	120	438	500
Frame#	Time	ThumbCMC			ThumbMCP			ThumbIP			ThumbTip			IndexMCP			IndexPIP			IndexTip			MiddleMCP			MiddlePIP			MiddleTip			RingMCP			RingPIP			RingTip			PinkyMCP			PinkyPIP			PinkyTip			BackHand1			BackHand2			BackHand3	
		X0	Y0	Z0	X1	Y1	Z1	X2	Y2	Z2	X3	Y3	Z3	X4	Y4	Z4	X5	Y5	Z5	X6	Y6	Z6	X7	Y7	Z7	X8	Y8	Z8	X9	Y9	Z9	X10	Y10	Z10	X11	Y11	Z11	X12	Y12	Z12	X13	Y13	Z13	X14	Y14	Z14	X15	Y15	Z15	X16	Y16	Z16	X17	Y17	Z17	X18	Y18	Z18	
437	3.64167	112.129	-33.4838	50.8672	89.0216	-19.2707	24.8815	62.2074	-16.2637	3.69531	32.6462	-24.5692	-3.32103	74.9458	-84.5447	-0.698166	52.4331	-78.3778	-27.7706	38.0702	-51.1676	-31.5778	53.0177	-96.8261	7.33232	28.37	-82.7236	-21.3945	19.2878	-45.8725	-21.0319	33.3332	-92.9374	18.0949	15.1044	-80.5562	-0.269196	10.8104	-46.0093	-6.10447	23.5872	-85.3021	43.4685	7.52679	-75.7917	17.9211	6.99302	-43.3192	3.49484	66.3297	-85.0371	69.9486	84.59	-78.1983	98.6186	103.801	-76.059	65.1543	
438	3.65	110.99	-33.4199	53.521	90.8118	-17.0954	25.8233	62.4808	-14.3037	1.42693	35.6087	-22.711	0.402192	75.8392	-84.5936	-4.15807	52.7968	-78.0219	-25.404	38.1944	-45.59	-33.5764	51.957	-94.0126	7.67913	28.7556	-83.0548	-20.0049	18.5616	-43.9004	-22.2522	34.4851	-91.772	21.3262	14.4112	-75.779	-3.31208	13.6263	-44.7066	-7.47626	24.7565	-83.4915	41.9442	5.60977	-71.3277	16.5057	4.4562	-42.1149	6.1012	67.005	-85.1185	68.4662	82.3333	-78.7604	97.9047	104.155	-74.1693	64.5533	
439	3.65833	111.828	-30.187	52.9649	89.1646	-16.9695	25.7176	62.1447	-12.2669	2.05424	35.3888	-18.9851	-3.45531	75.3377	-81.2047	-2.89423	54.1692	-74.2518	-29.238	35.0664	-46.6739	-30.2922	51.6144	-92.1383	7.08976	30.0448	-80.2337	-21.3166	15.3544	-41.0286	-18.5798	32.6682	-90.2793	18.8628	17.2681	-76.1056	-4.08355	9.57088	-38.0579	-5.30197	26.9147	-81.9407	39.3959	4.55946	-69.0412	15.5886	4.14414	-38.6727	5.4053	69.2082	-83.6009	71.2932	85.1012	-77.3889	101.621	106.277	-71.8393	61.2253	
440	3.66667	113.359	-26.2137	54.0996	92.7184	-11.4977	27.9285	64.2282	-7.91928	3.152	36.1355	-15.8556	-3.9203	77.9722	-77.7014	-4.67781	56.3554	-72.91	-28.5601	34.5049	-42.3019	-30.1374	53.8066	-89.9857	3.68347	31.1089	-77.8756	-20.9534	14.6959	-37.129	-18.8904	36.0675	-87.3068	16.2275	16.4397	-74.7512	-2.22749	12.2487	-35.4949	-5.13595	24.7295	-82.0428	37.6361	5.65361	-65.9479	15.1415	5.58355	-41.2179	8.54057	69.2898	-82.5106	69.0536	84.65	-78.9764	98.564	104.893	-71.7357	62.8487	
441	3.675	109.187	-27.4011	53.0953	89.5791	-13.0167	25.8046	63.3195	-7.09205	1.01878	36.8048	-15.2608	-3.72601	77.6652	-76.0426	-3.13814	54.424	-70.7541	-25.8068	36.5078	-41.727	-31.5407	55.2465	-86.602	-0.437122	27.5412	-72.1531	-19.5152	18.6295	-35.3583	-20.5472	34.9462	-85.6962	15.9598	14.2656	-69.1744	-3.66624	11.2616	-36.6718	-2.86703	24.0538	-81.7188	37.303	7.24204	-65.7947	15.7796	4.67088	-34.631	11.218	70.8202	-82.7677	67.5433	87.2157	-77.925	94.4505	107.368	-69.729	63.9307	
442	3.68333	110.548	-24.7525	55.8063	90.9974	-9.31063	26.0138	64.9114	-4.5835	4.66269	35.97	-11.0121	-6.42247	74.9027	-73.9704	-7.60929	51.7561	-65.8942	-27.7026	32.9685	-37.465	-29.9223	54.3325	-83.1117	1.68875	29.0456	-65.5758	-21.1457	17.6342	-30.9588	-16.0684	37.242	-82.4943	17.7129	16.6961	-65.9326	-2.46786	13.4247	-32.0436	-0.141226	26.3536	-78.4451	39.3392	7.05038	-62.294	17.9639	2.79688	-32.1554	14.9403	73.0562	-81.1605	69.137	87.0659	-74.5214	98.6485	103.875	-68.2649	62.7327	
443	3.69167	110.071	-23.7744	51.3756	89.4073	-9.72588	25.6145	64.2031	-3.30782	2.86673	35.6025	-10.9631	-5.32334	75.6712	-71.0079	-2.27766	49.0852	-64.966	-25.3911	33.9994	-32.7198	-29.3249	52.8306	-79.5805	0.797838	25.1229	-59.3595	-17.7388	16.3516	-26.4985	-10.1784	33.2025	-79.8325	18.221	13.6377	-60.6591	-0.752474	14.5947	-27.1699	3.0813	22.3122	-78.2117	39.3341	8.10325	-58.4198	18.4595	7.42948	-27.0321	20.2516	70.0063	-80.7544	71.3595	85.952	-77.016	96.5486	103.947	-68.0002	64.0911	
444	3.7	111.519	-20.6725	53.0044	88.0512	-7.00247	27.6702	62.9844	-0.875385	6.29212	36.8745	-6.70346	-1.03346	69.3057	-70.3281	-4.47648	48.2557	-59.9719	-28.1757	33.402	-29.9374	-28.3235	48.402	-77.0535	0.857846	23.1758	-55.8662	-17.0755	17.3099	-19.4146	-9.0585	29.5856	-78.1241	16.8666	11.9969	-59.6016	2.51457	13.5273	-20.8463	11.9007	22.3244	-75.5214	44.3651	3.72794	-54.4521	20.9843	7.28824	-22.839	24.9348	70.2616	-80.8392	66.334	88.8065	-73.0777	97.5269	104.615	-66.0123	64.422	
445	3.70833	110.836	-19.4235	54.2304	87.9095	-4.61556	26.404	59.9616	-1.84482	4.92444	34.8652	-5.51506	-2.11136	68.9069	-68.7141	-4.82821	50.6725	-59.8078	-26.5271	30.6332	-31.9536	-27.3828	46.1452	-75.2993	1.39383	22.2163	-55.8897	-16.0424	13.2174	-18.5778	-3.65598	31.2139	-74.8326	17.1966	8.37559	-57.4897	5.93307	11.9015	-22.5929	10.3071	21.5043	-74.1163	42.2531	2.95479	-52.5026	21.1	5.92801	-21.3423	25.2769	68.783	-77.9911	70.6825	84.1908	-73.7159	96.5374	104.962	-64.9591	66.5915	
446	3.71667	106.064	-22.1864	55.1579	89.0561	-1.21022	28.6314	58.6386	1.87736	3.63234	34.3906	-5.56903	2.62006	69.6004	-66.0597	-1.8344	42.0262	-57.1049	-23.9976	27.8889	-31.4618	-25.5359	43.04	-74.9181	2.5795	20.2889	-56.2756	-14.2849	13.3429	-16.8987	-5.36631	27.4251	-73.4876	17.8653	7.56604	-56.7663	6.02268	9.85595	-21.5384	13.229	17.0939	-72.5059	42.9651	-0.548423	-50.0642	24.8403	4.66614	-17.1036	28.2671	68.5398	-76.6887	72.3791	85.0425	-73.3542	97.6548	105.267	-63.3166	65.2164	
447	3.725	107.897	-17.0883	57.1982	83.0429	-2.97177	28.0044	56.6608	0.870713	7.33701	28.5409	-6.18965	1.46329	68.2865	-64.1354	-2.71493	43.9523	-57.3623	-23.5025	23.3384	-29.7553	-23.4244	42.8256	-73.071	8.1328	18.1814	-53.2915	-12.4913	10.6674	-14.5488	-2.98569	29.1657	-73.0161	21.4048	8.20898	-53.0714	5.51776	10.9738	-15.7139	16.162	18.1764	-69.9745	45.3203	-2.60159	-47.7544	26.9789	2.99751	-18.2154	29.8096	63.9646	-77.8757	68.7505	82.0946	-71.1166	96.8016	100.139	-62.4547	65.1802	
448	3.73333	102.741	-19.8626	57.9907	84.9506	0.743669	29.1948	55.2623	3.49069	11.1893	25.4985	-5.30314	2.8382	65.8247	-63.5648	-2.1787	35.8631	-54.4899	-21.9686	19.7538	-28.8882	-20.6673	38.56	-72.2197	7.71143	14.3923	-50.8646	-11.6304	7.1761	-12.5245	2.09056	22.4444	-72.1656	20.0633	1.4477	-48.1083	9.22659	6.73692	-14.9079	19.6977	14.7688	-69.9725	46.7448	-2.49523	-47.6026	26.6234	2.40529	-17.8801	30.743	66.4139	-76.9208	69.9827	83.2356	-70.0901	99.7709	101.546	-62.3001	61.8676	
449	3.74167	100.566	-20.7093	56.6583	82.4373	-0.740027	33.3289	56.1716	6.89884	8.75895	28.032	0.32479	3.16716	61.1046	-62.8394	0.0859953	36.2803	-54.2513	-22.8953	16.7506	-27.3556	-20.5339	39.1742	-69.4844	6.11964	10.2414	-48.3742	-8.77705	8.34159	-10.5034	3.05772	18.204	-71.6818	23.6723	0.250681	-46.9039	9.00381	3.32849	-17.1658	21.5199	12.5809	-68.9392	48.8695	-6.07359	-48.665	30.1437	0.354956	-18.9001	32.3413	63.1504	-75.5988	71.365	77.845	-71.1583	97.8265	99.179	-61.3705	65.0409	
450	3.75	101.955	-17.0619	57.1364	80.3685	0.340873	30.8973	52.0712	4.80346	10.8982	26.0513	2.26786	3.54885	59.1037	-61.2828	-3.82993	34.6771	-55.5847	-18.6961	14.3235	-22.7546	-23.6845	35.6741	-69.3873	10.2614	8.51579	-49.4159	-7.35827	4.21843	-12.4892	7.50053	21.9282	-68.4842	25.0291	-1.60219	-45.1926	12.8465	5.54063	-13.1264	22.2709	11.387	-67.1922	48.5633	-7.45206	-44.5446	32.5807	-1.9169	-12.8915	39.6876	60.8305	-73.8555	71.6735	80.9745	-69.6529	100.905	97.723	-60.905	66.0819	
451	3.75833	100.671	-16.8796	59.2344	81.6508	2.73377	32.4006	54.4825	10.9109	11.6517	24.5689	4.59531	4.21639	57.3045	-59.539	0.69637	31.4669	-50.3138	-21.3753	13.135	-27.4968	-21.6653	36.0362	-66.9588	11.252	7.04024	-43.7636	-5.91585	7.76259	-6.15413	8.99094	15.786	-67.0316	26.5054	-1.85147	-42.8438	13.0265	7.98987	-9.72606	26.9284	10.3565	-64.4577	46.793	-10.0335	-44.555	36.329	-1.51889	-10.7513	40.1834	61.0803	-72.9153	74.5322	79.737	-68.6607	102.757	96.6044	-58.1516	65.4652	
452	3.76667	99.8945	-16.5547	58.7496	82.6811	5.04107	35.2228	51.8347	8.65358	13.7308	25.2936	8.30201	4.69019	53.1867	-58.7212	0.883118	33.1031	-49.8169	-19.5458	12.8839	-24.4405	-23.4454	33.0401	-65.4235	9.97763	7.34012	-43.3751	-4.61054	7.63808	-4.59942	13.1593	18.7676	-64.5128	25.9335	-1.27514	-44.0742	15.2698	5.35011	-10.1192	29.6278	7.93633	-62.6533	50.165	-9.38678	-40.3476	37.4789	-1.3158	-10.7065	40.4572	61.2013	-73.4646	72.6413	81.1225	-66.8858	101.04	95.1092	-57.3418	62.5794	
453	3.775	99.2404	-15.6374	58.8772	80.1415	4.41612	33.1613	54.3575	13.1649	12.8348	26.0296	9.01038	3.82219	56.1233	-54.3059	-1.05643	29.2638	-46.5274	-17.7245	8.3856	-21.3135	-20.4791	34.6679	-61.8313	9.27378	7.6223	-39.7822	-3.28517	8.45444	-3.75473	13.9583	16.3368	-62.4877	30.9606	-4.8248	-36.8841	20.2337	5.15321	-8.8003	33.8251	6.06572	-61.9917	52.397	-10.6806	-33.7874	40.3738	-0.152847	-8.2163	43.2099	57.3966	-72.2328	71.902	80.9278	-69.7162	102.32	95.6339	-56.8944	61.4909	
454	3.78333	102.531	-12.3876	62.1916	85.3538	8.06578	34.3281	56.1482	12.4555	12.1125	31.3744	13.2889	4.78453	52.2973	-53.9508	1.59516	28.3296	-43.3344	-17.7465	9.19355	-20.6688	-19.9386	31.5593	-59.4715	10.1345	6.39821	-37.2515	-0.0171216	9.11563	-2.20997	16.5216	15.8964	-60.1187	28.9859	-3.19856	-32.0143	20.7292	10.3052	-4.37582	38.3282	11.2536	-59.833	54.6869	-8.92522	-33.4531	39.7076	3.06829	-4.65243	47.5815	59.9963	-71.3635	73.7141	78.5333	-68.7349	100.472	96.4474	-55.3325	66.3499	
455	3.79167	102.625	-11.9796	58.9048	86.1685	7.02915	32.9297	59.1337	13.5805	9.89726	31.8424	10.4152	3.53044	51.0416	-52.1688	1.50285	28.4403	-41.8999	-15.0666	10.0487	-16.1416	-17.3483	29.5378	-58.9427	13.7567	6.16595	-34.6339	1.41926	13.4922	1.54437	24.523	14.5121	-58.3951	29.6745	-4.01619	-32.7725	23.7881	12.8302	-2.74334	42.6377	7.07736	-56.8071	52.1016	-7.45861	-31.3965	40.6033	5.97996	-1.32363	53.4828	59.9938	-69.6067	69.9736	83.2525	-67.2606	101.463	94.7367	-56.869	62.2253	
456	3.8	102.244	-12.1618	56.841	87.9728	8.52302	33.844	60.559	15.2632	7.99813	34.1484	12.5764	1.72935	53.0924	-48.3738	2.1822	27.9906	-37.5204	-15.9947	10.1509	-5.5258	-11.072	30.0609	-54.7348	10.5129	6.67558	-29.5721	3.35058	16.366	2.74289	25.8227	15.4677	-56.2367	30.3932	-3.32183	-28.0151	25.2405	14.1426	-2.80246	41.7526	7.70457	-54.2454	50.2607	-7.54231	-30.2045	42.8554	7.32495	-1.62626	52.2934	62.5618	-67.975	74.0002	79.7598	-65.1979	100.642	96.3484	-52.9319	63.7668	
